<svg width="60" height="60" viewBox="0 0 60 60" fill="none" xmlns="http://www.w3.org/2000/svg">
<path d="M59.48 9.23996C59.02 10.24 58.22 10.56 57.15 10.53C55.09 10.47 53.02 10.52 50.96 10.51C49.64 10.51 48.96 9.83999 48.95 8.51999C48.95 8.03999 48.95 7.56997 48.95 7.05997C46.61 7.05997 44.32 7.05997 41.92 7.05997C42.15 7.22997 42.31 7.34994 42.47 7.46994C47.88 11.2499 51.08 16.41 52.06 22.93C52.24 24.1 52.47 24.92 53.66 25.56C55.48 26.55 56.25 28.9 55.77 30.9C55.28 32.95 53.53 34.5899 51.55 34.8499C49.25 35.1499 47.21 34.18 46.17 32.28C44.7 29.59 45.68 26.46 48.46 25.07C48.75 24.93 48.84 24.78 48.8 24.45C48.2 19 45.81 14.54 41.52 11.12C39.54 9.53997 37.29 8.44999 34.85 7.76999C34.55 7.68999 34.41 7.76999 34.25 8.01999C32.1 11.33 27.61 11.33 25.48 8.03C25.3 7.75 25.15 7.68 24.83 7.78C17.43 10.06 12.91 14.9999 11.22 22.5399C11.09 23.1399 11.06 23.76 10.93 24.37C10.85 24.74 10.95 24.91 11.29 25.08C13.16 26.02 14.18 27.57 14.21 29.65C14.23 31.72 13.27 33.31 11.43 34.32C8.83998 35.73 5.63998 34.63 4.29998 31.89C3.07998 29.41 4.25001 26.2 6.83001 25.07C7.34001 24.85 7.44999 24.55 7.49999 24.08C8.05999 18.4 10.39 13.57 14.52 9.63999C15.49 8.70998 16.6 7.91998 17.64 7.06998C15.4 7.06998 13.11 7.06998 10.76 7.06998C10.76 7.60998 10.77 8.13996 10.76 8.67996C10.74 9.77996 10.04 10.5 8.93999 10.5C6.63999 10.51 4.34998 10.51 2.04998 10.5C0.94998 10.49 0.239973 9.77996 0.229973 8.67996C0.219973 6.41996 0.219973 4.15994 0.229973 1.90994C0.239973 0.809943 0.94998 0.099997 2.04998 0.089997C4.34998 0.079997 6.63999 0.079997 8.93999 0.089997C10.04 0.099997 10.74 0.809943 10.76 1.90994C10.77 2.42994 10.76 2.94997 10.76 3.55997C10.99 3.55997 11.19 3.55997 11.39 3.55997C15.71 3.55997 20.03 3.54998 24.36 3.56998C24.8 3.56998 25.02 3.45995 25.23 3.03995C26.17 1.13995 27.74 0.109946 29.84 0.0999457C31.97 0.0899457 33.55 1.12995 34.51 3.03995C34.7 3.41995 34.89 3.55997 35.32 3.55997C39.66 3.53997 44 3.54996 48.34 3.54996C48.53 3.54996 48.72 3.54996 48.96 3.54996C48.96 2.97996 48.95 2.45998 48.96 1.94998C48.98 0.789982 49.68 0.0899872 50.85 0.0799872C53.07 0.0699872 55.29 0.0999775 57.51 0.0699775C58.49 0.0599775 59.08 0.539946 59.5 1.34995C59.48 3.98995 59.48 6.61996 59.48 9.23996Z" fill="#EF7B48"/>
<path d="M19.31 59.38C19.18 59.31 19.0399 59.24 18.9099 59.17C18.0999 58.74 17.7899 57.9199 18.0999 57.0699C19.1299 54.2299 21.65 52.3699 24.65 52.3299C28.12 52.2899 31.59 52.2899 35.06 52.3299C38.05 52.3699 40.58 54.2299 41.61 57.0699C41.97 58.0599 41.61 58.76 40.4 59.38C33.35 59.38 26.33 59.38 19.31 59.38Z" fill="#EF7B48"/>
<path d="M31.7 15.5C33.74 18.56 35.78 21.63 37.83 24.69C40.21 28.27 42.6 31.84 44.98 35.42C45.69 36.48 45.65 37.19 44.77 38.11C41.81 41.22 39.92 44.89 39.07 49.09C39.04 49.24 38.99 49.38 38.93 49.58C38.62 49.48 38.34 49.35 38.04 49.3C36.96 49.13 35.88 48.88 34.79 48.86C31.59 48.8 28.39 48.85 25.18 48.83C23.78 48.82 22.41 48.99 21.09 49.48C20.99 49.52 20.87 49.53 20.81 49.54C20.39 48.17 20.03 46.81 19.56 45.5C18.61 42.86 17.14 40.52 15.22 38.46C15.11 38.35 15.01 38.24 14.9 38.12C14.04 37.17 13.99 36.49 14.69 35.42C17.55 31.12 20.42 26.82 23.29 22.52C24.85 20.18 26.41 17.84 28.04 15.4C28.07 15.64 28.09 15.77 28.09 15.91C28.09 21.04 28.09 26.17 28.1 31.31C28.1 31.67 28.01 31.85 27.67 32C25.46 33.02 24.35 35.18 24.72 37.65C25.03 39.7 26.92 41.54 28.99 41.81C31.46 42.13 33.61 40.96 34.6 38.76C35.72 36.25 34.59 33.22 32.09 32.06C31.67 31.87 31.55 31.64 31.56 31.2C31.58 26.16 31.57 21.13 31.57 16.09C31.57 15.9 31.57 15.72 31.57 15.53C31.62 15.51 31.66 15.51 31.7 15.5Z" fill="#EF7B48"/>
<path d="M31.57 36.7C31.56 37.65 30.77 38.43 29.83 38.42C28.89 38.41 28.1 37.62 28.11 36.68C28.12 35.73 28.9099 34.95 29.8499 34.96C30.7999 34.96 31.58 35.75 31.57 36.7Z" fill="#EF7B48"/>
</svg>
