<svg width="60" height="60" viewBox="0 0 60 60" fill="none" xmlns="http://www.w3.org/2000/svg">
<path d="M29.91 32.89C28.58 32.91 27.32 32.61 26.12 32.03C18.26 28.16 10.39 24.3 2.53 20.42C0.989997 19.66 0.160011 18.38 0.170011 16.67C0.180011 14.96 1.02001 13.72 2.57001 12.95C10.4 9.09995 18.22 5.24002 26.05 1.40002C28.6 0.150024 31.18 0.150024 33.73 1.40002C41.52 5.22002 49.31 9.06001 57.1 12.89C58.69 13.67 59.59 14.9101 59.6 16.6801C59.6 18.4501 58.71 19.7 57.12 20.48C49.31 24.31 41.5 28.16 33.7 32C32.5 32.59 31.24 32.91 29.91 32.89Z" fill="#EF7B48"/>
<path d="M29.7199 46.41C28.5699 46.4 27.3299 46.12 26.1599 45.54C18.2999 41.67 10.4299 37.8 2.56995 33.93C1.04995 33.18 0.219944 31.95 0.189944 30.27C0.159944 28.75 0.819927 27.5499 2.10993 26.7099C2.78993 26.2699 3.42993 26.24 4.17993 26.61C11.3499 30.16 18.5499 33.67 25.7199 37.23C28.5299 38.63 31.2799 38.62 34.0899 37.23C41.2599 33.67 48.4599 30.16 55.6299 26.61C56.3899 26.23 57.02 26.29 57.7 26.72C60.39 28.42 60.2299 32.37 57.3699 33.85C55.1799 34.99 52.9599 36.04 50.7399 37.13C45.1499 39.88 39.5499 42.63 33.9599 45.39C32.6599 46.03 31.3199 46.41 29.7199 46.41Z" fill="#EF7B48"/>
<path d="M29.87 59.92C28.57 59.89 27.32 59.63 26.14 59.05C18.26 55.17 10.37 51.3 2.49997 47.41C1.02997 46.68 0.229965 45.4599 0.179965 43.8299C0.129965 42.3099 0.76997 41.0999 2.05997 40.2399C2.74997 39.7799 3.40998 39.7299 4.18998 40.1099C11.21 43.5899 18.25 47.04 25.28 50.51C26.46 51.09 27.64 51.6099 28.97 51.7499C30.66 51.9299 32.24 51.63 33.75 50.88C40.97 47.33 48.2 43.7899 55.4 40.1999C56.47 39.6599 57.27 39.84 58.12 40.52C60.36 42.33 60.05 45.9 57.47 47.29C55.6 48.3 53.66 49.19 51.76 50.13C45.75 53.09 39.74 56.0499 33.73 58.9999C32.5 59.6099 31.21 59.9 29.87 59.92Z" fill="#EF7B48"/>
</svg>
