<svg width="60" height="61" viewBox="0 0 60 61" fill="none" xmlns="http://www.w3.org/2000/svg">
<path d="M11.43 5.20004C11.38 6.36004 11.17 7.45002 11.32 8.49002C11.77 11.59 14.18 13.75 17.35 13.79C23.12 13.87 28.9 13.9001 34.67 13.7801C38.95 13.7001 41.64 9.83003 40.51 5.69003C40.47 5.56003 40.45 5.42001 40.4 5.23001C43.16 5.15001 45.87 4.94005 48.2 6.78005C50.05 8.24005 51.17 10.14 51.19 12.49C51.26 19.16 51.22 25.83 51.21 32.49C51.21 32.71 51 32.98 50.81 33.15C50.27 33.63 49.66 34.03 49.15 34.54C44.15 39.52 39.19 44.53 34.18 49.5C33.09 50.58 32.37 51.7701 32.17 53.3101C31.98 54.8201 31.61 56.3001 31.41 57.8101C31.3 58.6301 31.39 59.4801 31.39 60.4001C31.29 60.4001 31.03 60.4001 30.77 60.4001C23.45 60.4001 16.13 60.4001 8.80996 60.4001C4.06996 60.4001 0.779961 57.12 0.779961 52.39C0.769961 39.34 0.769961 26.3 0.779961 13.25C0.779961 8.51003 4.02996 5.24003 8.77996 5.19003C9.68996 5.19003 10.61 5.20004 11.43 5.20004ZM31.29 31.12C33.8 31.12 36.31 31.12 38.82 31.12C40.19 31.12 41.1099 30.28 41.1099 29.05C41.1199 27.83 40.21 26.95 38.84 26.94C33.77 26.93 28.7 26.92 23.63 26.94C22.28 26.94 21.3499 27.85 21.3599 29.06C21.3799 30.27 22.32 31.11 23.68 31.12C26.22 31.12 28.75 31.12 31.29 31.12ZM28.63 39.63C26.97 39.63 25.3 39.62 23.64 39.63C22.32 39.64 21.4 40.4701 21.37 41.6501C21.34 42.8501 22.28 43.7701 23.62 43.7801C26.95 43.8001 30.2799 43.8001 33.6099 43.7801C34.9799 43.7701 35.88 42.9 35.87 41.68C35.86 40.46 34.95 39.64 33.56 39.64C31.91 39.62 30.27 39.63 28.63 39.63ZM14.01 31.11C14.4 31.11 14.78 31.13 15.17 31.11C16.22 31.06 17.06 30.26 17.15 29.25C17.25 28.18 16.59 27.17 15.51 27.04C14.54 26.92 13.53 26.9201 12.56 27.0301C11.47 27.1601 10.82 28.12 10.9 29.22C10.97 30.26 11.83 31.07 12.92 31.11C13.28 31.13 13.65 31.12 14.01 31.11ZM14.03 39.64C13.62 39.64 13.2099 39.62 12.7999 39.64C11.7199 39.72 10.92 40.57 10.89 41.63C10.87 42.71 11.6 43.64 12.67 43.73C13.56 43.8 14.46 43.8 15.34 43.73C16.41 43.64 17.16 42.7101 17.14 41.6501C17.12 40.59 16.32 39.72 15.25 39.64C14.86 39.62 14.44 39.65 14.03 39.64Z" fill="#EF7B48"/>
<path d="M25.99 10.33C23.29 10.33 20.58 10.33 17.88 10.33C15.34 10.33 14.11 8.50002 15.04 6.15002C15.59 4.76002 16.15 3.36999 16.71 1.98999C17.22 0.72999 18.15 0.100027 19.5 0.0900269C23.85 0.0900269 28.19 0.0900269 32.54 0.0900269C33.86 0.0900269 34.79 0.720012 35.29 1.95001C35.89 3.42001 36.48 4.9 37.06 6.38C37.86 8.44 36.62 10.3 34.4 10.33C31.59 10.35 28.79 10.33 25.99 10.33Z" fill="#EF7B48"/>
<path d="M54.03 47.79C52.44 49.38 50.84 50.98 49.23 52.59C47.21 54.61 45.18 56.61 43.19 58.65C42.61 59.24 41.96 59.54 41.17 59.66C39.76 59.87 38.3599 60.12 36.9599 60.36C35.5999 60.59 34.65 59.74 34.85 58.37C35.1 56.65 35.4199 54.94 35.7399 53.23C35.7899 52.96 35.9599 52.68 36.1499 52.49C39.8699 48.76 43.59 45.03 47.32 41.31C47.37 41.26 47.44 41.23 47.51 41.19C49.67 43.37 51.82 45.55 54.03 47.79Z" fill="#EF7B48"/>
<path d="M56.59 45.2C54.4 42.99 52.25 40.81 50.04 38.58C51.25 37.47 52.21 35.94 54.02 35.47C56.06 34.95 58.14 35.78 59.22 37.55C60.3 39.32 60.12 41.5 58.72 43.06C58.06 43.8 57.33 44.46 56.59 45.2Z" fill="#EF7B48"/>
</svg>
