<svg width="60" height="60" viewBox="0 0 60 60" fill="none" xmlns="http://www.w3.org/2000/svg">
<path d="M59.37 32.15C59.3 32.66 59.24 33.1701 59.16 33.6801C58.9 35.1601 57.57 36.1801 56.09 36.0601C54.58 35.9301 53.4399 34.68 53.4699 33.15C53.4899 32.27 53.6 31.39 53.6 30.5C53.7 19.04 45.8699 9.31994 34.66 6.93994C21.8099 4.21994 9.01001 12.76 6.53001 25.7C3.99001 38.95 12.91 51.6701 26.19 53.6801C31.95 54.5501 37.35 53.44 42.33 50.41C43.01 50 43.7 49.71 44.51 49.83C45.78 50.03 46.69 50.89 46.95 52.12C47.2 53.31 46.72 54.46 45.64 55.14C43.14 56.72 40.46 57.89 37.61 58.67C21.05 63.18 4.14999 52.6699 0.889991 35.8199C-2.23001 19.7599 8.13999 4.38997 24.26 1.21997C25.5 0.979971 26.76 0.850034 28.01 0.660034C29.32 0.660034 30.62 0.660034 31.93 0.660034C32.95 0.810034 33.98 0.929985 34.99 1.10999C47.15 3.20999 56.86 12.92 58.92 25.04C59.1 26.1 59.23 27.16 59.38 28.22C59.37 29.54 59.37 30.84 59.37 32.15Z" fill="#EF7B48"/>
<path d="M25.59 34.1701C25.73 33.9501 25.83 33.73 25.99 33.57C30.39 29.16 34.79 24.76 39.19 20.36C40.43 19.12 42.08 19.0001 43.28 20.0301C44.46 21.0501 44.63 22.8001 43.66 24.0201C43.58 24.1301 43.48 24.22 43.39 24.32C38.11 29.61 32.83 34.9001 27.54 40.1701C26.34 41.3601 24.61 41.3601 23.41 40.1701C21.02 37.8101 18.64 35.4301 16.28 33.0401C15.11 31.8601 15.1 30.1 16.22 28.95C17.36 27.79 19.14 27.77 20.35 28.96C21.92 30.49 23.45 32.05 25 33.6C25.14 33.75 25.29 33.8901 25.59 34.1701Z" fill="#EF7B48"/>
</svg>
